<svg width="359" height="359" viewBox="0 0 359 359" fill="none" xmlns="http://www.w3.org/2000/svg">
<path d="M359 207.703V152.119L317.289 142.992L304.237 109.525L325.808 71.4958L285.983 33.4661L249.475 54.7627L216.008 42.5932L208.129 0H152.119L142.992 42.5932L106.483 54.7627L69.9746 33.4661L36.5085 69.9746L57.8051 109.525L42.5932 142.992L0 153.123V206.881L42.5932 216.008L60.8475 252.517L36.5085 292.068L69.9746 322.492L115.61 301.195L142.992 313.364L152.818 359H206.881L219.051 313.364L252.517 301.195L289.025 322.492L322.492 285.983L301.195 249.475L316.407 216.008L359 207.703ZM181.021 258.602C165.075 258.602 149.488 253.873 136.23 245.014C122.971 236.155 112.638 223.564 106.535 208.832C100.433 194.1 98.8366 177.889 101.947 162.25C105.058 146.611 112.737 132.245 124.012 120.97C135.288 109.695 149.653 102.016 165.292 98.9051C180.932 95.7942 197.142 97.3908 211.874 103.493C226.606 109.595 239.198 119.929 248.057 133.187C256.916 146.446 261.644 162.033 261.644 177.979C261.648 188.567 259.565 199.053 255.515 208.837C251.465 218.62 245.526 227.509 238.039 234.997C230.552 242.484 221.662 248.423 211.879 252.473C202.096 256.523 191.61 258.606 181.021 258.602Z" fill="white"/>
</svg>
