<svg width="741" height="741" viewBox="0 0 741 741" fill="none" xmlns="http://www.w3.org/2000/svg">
<mask id="mask0_203_85" style="mask-type:luminance" maskUnits="userSpaceOnUse" x="0" y="0" width="741" height="741">
<path d="M370.5 741C575.122 741 741 575.122 741 370.5C741 165.878 575.122 0 370.5 0C165.878 0 0 165.878 0 370.5C0 575.122 165.878 741 370.5 741Z" fill="white"/>
</mask>
<g mask="url(#mask0_203_85)">
<path d="M1049.5 -21.5H-307.5V741.4H1049.5V-21.5Z" fill="#2E5939"/>
<path d="M663.6 218.2C660.3 218.2 657.2 216.7 655.2 214.2C653.9 212.6 624.5 178.1 568.9 178.1C513.3 178.1 483.8 212.7 482.6 214.2C478.8 218.9 471.9 219.5 467.2 215.7C462.5 211.9 461.9 205 465.7 200.3C467.2 198.5 502.5 156.2 568.9 156.2C635.2 156.2 670.6 198.5 672.1 200.3C675.9 205 675.2 211.9 670.6 215.7C668.5 217.3 666.1 218.2 663.6 218.2Z" fill="#ECFFD4" stroke="#2E5939" stroke-miterlimit="10"/>
<path d="M638.1 247.3C634.8 247.3 631.8 245.9 629.7 243.4C613.9 226.9 591.8 217.7 568.9 218.2C546 217.7 523.9 226.9 508.1 243.4C504.1 247.9 497.2 248.3 492.7 244.3C488.4 240.5 487.8 234 491.3 229.4C511.3 207.8 539.5 195.8 568.9 196.3C598.3 195.8 626.5 207.9 646.5 229.4C650.3 234.1 649.6 241 645 244.8C643 246.5 640.6 247.3 638.1 247.3Z" fill="#ECFFD4" stroke="#2E5939" stroke-miterlimit="10"/>
<path d="M608.9 276.5C605.5 276.5 602.3 274.9 600.3 272.3C584.6 254.9 557.9 253.6 540.5 269.2C539.4 270.2 538.4 271.2 537.4 272.3C533.7 277 526.8 277.9 522.1 274.1C517.4 270.4 516.6 263.7 520.1 259C543 232.1 583.5 228.8 610.4 251.8C613 254 615.4 256.4 617.6 259C621.3 263.8 620.3 270.7 615.5 274.3C613.7 275.7 611.3 276.5 608.9 276.5Z" fill="#ECFFD4" stroke="#2E5939" stroke-miterlimit="10"/>
<path d="M582.1 557.6C577.5 539.9 562 547.3 562 547.3C555.8 526.7 520.2 531.1 520.2 531.1C514 517.8 500.1 526.7 500.1 526.7C493.9 519.3 480 523.8 480 523.8C475.4 507.6 459.9 516.4 459.9 516.4C453.7 504.6 433.6 509 433.6 509C433.6 498.7 421.2 500.2 421.2 500.2C422.7 485.5 404.2 489.9 404.2 489.9C404.2 479.6 390.3 478.1 390.3 478.1C405.8 441.2 391.8 413.2 391.8 413.2C425.8 417.6 444.4 398.5 444.4 398.5C439.8 400 439.8 397 439.8 397C450.6 394.1 452.2 377.8 452.2 377.8C456.8 377.8 459.3 370.4 459.3 370.4C455.6 373.3 455.1 370.4 455.1 370.4C454.9 363 469.2 348.3 469.2 348.3C455.3 339.5 427.4 345.4 427.4 345.4C428.9 343.9 427.4 341 427.4 341C427.4 341 422.8 346.9 415 346.9C407.3 346.9 401.1 357.2 399.5 357.2C398 357.2 398 354.3 398 354.3C387.2 363.1 377.9 388.2 377.9 388.2C377.9 388.2 367.1 372 360.9 369C354.7 366.1 351.6 355.7 351.6 355.7C336.1 330.6 390.3 265.8 390.3 265.8C430 286.2 481.9 247.6 483.1 246.6C473.8 249.5 475.4 245.1 475.4 245.1C481.6 246.6 495.5 224.5 495.5 217.1C495.5 209.7 506.3 205.3 506.3 205.3C501.7 203.8 500.1 205.3 500.1 205.3C498.6 193.5 521.8 165.5 521.8 165.5C497 153.7 453.7 162.6 456.8 161.1C459.9 159.6 459.9 155.2 459.9 155.2C459.9 155.2 453.7 162.6 439.8 164C425.9 165.5 413.5 181.7 413.5 181.7C413.5 178.8 412 174.3 412 174.3C407.4 180.2 390.3 205.3 390.3 205.3C380.5 181.4 352.1 143.3 346.4 135.8C348.1 138.9 347 143.3 347 143.3C330.2 127.3 282 109.9 280.5 109.4C285.1 112.3 285.1 116.8 285.1 116.8C258.8 106.5 178.3 122.7 193.8 125.6C209.3 128.5 225.2 180.1 225.2 180.1C225.2 180.1 196.9 174.2 213.9 180.1C230.9 186 229.4 194.8 229.4 194.8C243.3 230.2 260.4 225.8 259.9 234.6C259.6 240 255.3 239.9 251.9 239C258.8 241.8 274.5 249 295.9 264.1C324.9 284.4 366.5 270 367.8 269.5C366.5 270.6 310.3 317.9 354.7 383.5C399.6 449.8 374.8 472 374.8 472L371.7 476.4C365.5 476.4 362.4 482.3 362.4 482.3C351.6 473.5 343.8 485.2 343.8 485.2C317.5 476.4 308.2 502.9 308.2 502.9C305.1 501.4 300.5 504.4 300.5 504.4C285 489.7 278.8 511.8 278.8 511.8C263.3 513.3 258.7 520.6 258.7 520.6C246.3 502.9 235.5 519.1 235.5 519.1C223.1 517.6 216.9 526.5 216.9 526.5C203 525 196.8 533.9 196.8 533.9C173.6 526.5 178.2 547.2 178.2 547.2C172 545.7 167.4 554.6 167.4 554.6C156.6 550.2 153.5 560.5 153.5 560.5C147.3 557.6 134.9 566.4 139.6 575.2C144.2 584 156.6 582.6 156.6 582.6C161.2 591.4 172.1 588.5 172.1 588.5C192.2 607.7 212.3 584.1 212.3 584.1C218.5 591.5 229.3 585.6 229.3 585.6C241.7 598.9 260.3 588.5 260.3 588.5C278.9 603.2 295.9 581.1 295.9 581.1C316 597.3 322.2 573.7 322.2 573.7C329.9 579.6 347 575.2 347 575.2C362.5 594.4 384.1 579.6 384.1 579.6C391.8 587 407.3 581.1 407.3 581.1C422.8 594.4 429 575.2 429 575.2C442.9 601.7 466.1 588.5 466.1 588.5C484.7 598.8 495.5 588.5 495.5 588.5C518.7 597.3 529.5 581.1 529.5 581.1C548.1 587 554.3 576.7 554.3 576.7C563.6 584.1 572.9 576.7 572.9 576.7C572.9 576.7 585.3 584.1 589.9 572.3C594.5 560.5 582.1 557.6 582.1 557.6Z" fill="#ECFFD4" stroke="#2E5939" stroke-width="5" stroke-miterlimit="10"/>
<path d="M175.991 414.692H128.641L121.444 436.473H82.4271L131.103 302.945H173.908L222.395 436.473H183.189L175.991 414.692ZM166.711 386.282L152.316 343.099L138.111 386.282H166.711ZM319.725 346.887C317.578 343.351 314.611 340.636 310.823 338.742C307.161 336.848 302.805 335.901 297.754 335.901C288.41 335.901 281.024 338.932 275.594 344.993C270.291 351.053 267.639 359.198 267.639 369.425C267.639 380.916 270.48 389.691 276.162 395.752C281.971 401.687 290.368 404.654 301.353 404.654C314.358 404.654 323.639 398.783 329.195 387.04H291.883V360.334H361.204V396.32C358.299 403.391 354.006 410.02 348.324 416.207C342.769 422.395 335.698 427.508 327.111 431.549C318.525 435.463 308.739 437.42 297.754 437.42C284.37 437.42 272.501 434.579 262.147 428.897C251.919 423.089 243.964 415.071 238.282 404.843C232.726 394.489 229.948 382.683 229.948 369.425C229.948 356.293 232.726 344.614 238.282 334.386C243.964 324.032 251.919 316.014 262.147 310.332C272.374 304.524 284.18 301.62 297.565 301.62C314.358 301.62 328.248 305.66 339.233 313.741C350.218 321.822 357.037 332.871 359.688 346.887H319.725ZM445.456 436.473L418.94 387.229H414.962V436.473H377.84V302.945H436.365C447.098 302.945 456.189 304.839 463.639 308.628C471.088 312.289 476.707 317.403 480.495 323.969C484.283 330.409 486.177 337.669 486.177 345.75C486.177 354.841 483.652 362.859 478.601 369.804C473.677 376.623 466.417 381.484 456.82 384.388L486.935 436.473H445.456ZM414.962 361.849H433.334C438.385 361.849 442.173 360.65 444.699 358.251C447.224 355.852 448.487 352.379 448.487 347.834C448.487 343.54 447.161 340.194 444.509 337.795C441.984 335.27 438.259 334.007 433.334 334.007H414.962V361.849ZM567.077 437.799C554.576 437.799 543.086 434.895 532.606 429.087C522.126 423.152 513.792 415.008 507.605 404.654C501.544 394.174 498.514 382.368 498.514 369.236C498.514 356.104 501.544 344.361 507.605 334.007C513.792 323.527 522.126 315.383 532.606 309.575C543.086 303.766 554.576 300.862 567.077 300.862C579.704 300.862 591.194 303.766 601.548 309.575C612.028 315.383 620.299 323.527 626.36 334.007C632.42 344.361 635.451 356.104 635.451 369.236C635.451 382.368 632.42 394.174 626.36 404.654C620.299 415.008 612.028 423.152 601.548 429.087C591.068 434.895 579.577 437.799 567.077 437.799ZM567.077 403.328C576.547 403.328 583.997 400.235 589.426 394.047C594.982 387.86 597.76 379.59 597.76 369.236C597.76 358.629 594.982 350.296 589.426 344.235C583.997 338.048 576.547 334.954 567.077 334.954C557.481 334.954 549.968 338.048 544.538 344.235C539.109 350.296 536.394 358.629 536.394 369.236C536.394 379.716 539.109 388.05 544.538 394.237C549.968 400.298 557.481 403.328 567.077 403.328Z" fill="#ECFFD4"/>
<path d="M175.991 414.692L178.365 413.908L177.798 412.192H175.991V414.692ZM128.641 414.692V412.192H126.834L126.267 413.908L128.641 414.692ZM121.444 436.473V438.973H123.251L123.818 437.258L121.444 436.473ZM82.4271 436.473L80.0783 435.617L78.8548 438.973H82.4271V436.473ZM131.103 302.945V300.445H129.354L128.754 302.089L131.103 302.945ZM173.908 302.945L176.258 302.092L175.66 300.445H173.908V302.945ZM222.395 436.473V438.973H225.962L224.745 435.62L222.395 436.473ZM183.189 436.473L180.815 437.258L181.382 438.973H183.189V436.473ZM166.711 386.282V388.782H170.179L169.082 385.491L166.711 386.282ZM152.316 343.099L154.688 342.308L152.3 335.146L149.941 342.317L152.316 343.099ZM138.111 386.282L135.736 385.501L134.657 388.782H138.111V386.282ZM175.991 412.192H128.641V417.192H175.991V412.192ZM126.267 413.908L119.07 435.689L123.818 437.258L131.015 415.477L126.267 413.908ZM121.444 433.973H82.4271V438.973H121.444V433.973ZM84.7759 437.33L133.452 303.802L128.754 302.089L80.0783 435.617L84.7759 437.33ZM131.103 305.445H173.908V300.445H131.103V305.445ZM171.558 303.799L220.045 437.327L224.745 435.62L176.258 302.092L171.558 303.799ZM222.395 433.973H183.189V438.973H222.395V433.973ZM185.562 435.689L178.365 413.908L173.618 415.477L180.815 437.258L185.562 435.689ZM169.082 385.491L154.688 342.308L149.944 343.889L164.339 387.073L169.082 385.491ZM149.941 342.317L135.736 385.501L140.486 387.063L154.691 343.88L149.941 342.317ZM138.111 388.782H166.711V383.782H138.111V388.782ZM319.725 346.887L317.588 348.184L318.318 349.387H319.725V346.887ZM310.823 338.742L309.674 340.963L309.689 340.971L309.705 340.978L310.823 338.742ZM275.594 344.993L273.732 343.324L273.722 343.335L273.713 343.346L275.594 344.993ZM276.162 395.752L274.339 397.462L274.357 397.482L274.376 397.501L276.162 395.752ZM329.195 387.04L331.455 388.109L333.143 384.54H329.195V387.04ZM291.883 387.04H289.383V389.54H291.883V387.04ZM291.883 360.334V357.834H289.383V360.334H291.883ZM361.204 360.334H363.704V357.834H361.204V360.334ZM361.204 396.32L363.516 397.27L363.704 396.814V396.32H361.204ZM348.324 416.207L346.483 414.516L346.474 414.527L346.464 414.537L348.324 416.207ZM327.111 431.549L328.148 433.824L328.162 433.817L328.176 433.811L327.111 431.549ZM262.147 428.897L260.912 431.071L260.928 431.08L260.944 431.089L262.147 428.897ZM238.282 404.843L236.079 406.025L236.088 406.042L236.097 406.057L238.282 404.843ZM238.282 334.386L236.09 333.183L236.085 333.193L238.282 334.386ZM262.147 310.332L263.361 312.518L263.371 312.512L263.381 312.506L262.147 310.332ZM339.233 313.741L337.752 315.755H337.752L339.233 313.741ZM359.688 346.887V349.387H362.706L362.145 346.422L359.688 346.887ZM321.862 345.589C319.465 341.641 316.14 338.606 311.941 336.506L309.705 340.978C313.082 342.667 315.692 345.061 317.588 348.184L321.862 345.589ZM311.971 336.522C307.883 334.407 303.116 333.401 297.754 333.401V338.401C302.494 338.401 306.439 339.289 309.674 340.963L311.971 336.522ZM297.754 333.401C287.816 333.401 279.708 336.653 273.732 343.324L277.456 346.661C282.339 341.21 289.005 338.401 297.754 338.401V333.401ZM273.713 343.346C267.912 349.975 265.139 358.761 265.139 369.425H270.139C270.139 359.635 272.67 352.131 277.476 346.639L273.713 343.346ZM265.139 369.425C265.139 381.305 268.079 390.785 274.339 397.462L277.986 394.042C272.882 388.597 270.139 380.526 270.139 369.425H265.139ZM274.376 397.501C280.792 404.056 289.921 407.154 301.353 407.154V402.154C290.814 402.154 283.15 399.317 277.949 394.003L274.376 397.501ZM301.353 407.154C308.24 407.154 314.295 405.595 319.404 402.363C324.513 399.131 328.512 394.329 331.455 388.109L326.935 385.97C324.322 391.493 320.902 395.499 316.731 398.138C312.559 400.777 307.471 402.154 301.353 402.154V407.154ZM329.195 384.54H291.883V389.54H329.195V384.54ZM294.383 387.04V360.334H289.383V387.04H294.383ZM291.883 362.834H361.204V357.834H291.883V362.834ZM358.704 360.334V396.32H363.704V360.334H358.704ZM358.891 395.371C356.11 402.143 351.985 408.525 346.483 414.516L350.166 417.898C356.028 411.515 360.489 404.64 363.516 397.27L358.891 395.371ZM346.464 414.537C341.161 420.443 334.373 425.369 326.047 429.287L328.176 433.811C337.022 429.648 344.376 424.346 350.184 417.878L346.464 414.537ZM326.074 429.274C317.863 433.018 308.44 434.92 297.754 434.92V439.92C309.039 439.92 319.187 437.909 328.148 433.824L326.074 429.274ZM297.754 434.92C284.733 434.92 273.288 432.16 263.349 426.706L260.944 431.089C271.713 436.999 284.006 439.92 297.754 439.92V434.92ZM263.381 426.723C253.55 421.14 245.925 413.454 240.468 403.629L236.097 406.057C242.003 416.689 250.288 425.038 260.912 431.071L263.381 426.723ZM240.485 403.661C235.148 393.715 232.448 382.325 232.448 369.425H227.448C227.448 383.042 230.305 395.264 236.079 406.025L240.485 403.661ZM232.448 369.425C232.448 356.656 235.147 345.396 240.479 335.579L236.085 333.193C230.306 343.832 227.448 355.931 227.448 369.425H232.448ZM240.474 335.589C245.931 325.644 253.549 317.968 263.361 312.518L260.933 308.147C250.289 314.06 241.997 322.42 236.09 333.183L240.474 335.589ZM263.381 312.506C273.183 306.94 284.553 304.12 297.565 304.12V299.12C283.808 299.12 271.566 302.108 260.912 308.158L263.381 312.506ZM297.565 304.12C313.951 304.12 327.287 308.057 337.752 315.755L340.714 311.728C329.209 303.264 314.766 299.12 297.565 299.12V304.12ZM337.752 315.755C348.203 323.443 354.692 333.925 357.232 347.351L362.145 346.422C359.382 331.817 352.234 320.202 340.714 311.728L337.752 315.755ZM359.688 344.387H319.725V349.387H359.688V344.387ZM445.456 436.473L443.255 437.659L443.963 438.973H445.456V436.473ZM418.94 387.229L421.141 386.044L420.433 384.729H418.94V387.229ZM414.962 387.229V384.729H412.462V387.229H414.962ZM414.962 436.473V438.973H417.462V436.473H414.962ZM377.84 436.473H375.34V438.973H377.84V436.473ZM377.84 302.945V300.445H375.34V302.945H377.84ZM463.639 308.628L462.506 310.856L462.521 310.864L462.536 310.871L463.639 308.628ZM480.495 323.969L478.33 325.218L478.335 325.227L478.341 325.237L480.495 323.969ZM478.601 369.804L476.579 368.334L476.575 368.34L478.601 369.804ZM456.82 384.388L456.096 381.995L453.077 382.909L454.656 385.639L456.82 384.388ZM486.935 436.473V438.973H491.268L489.099 435.222L486.935 436.473ZM414.962 361.849H412.462V364.349H414.962V361.849ZM444.699 358.251L442.977 356.438L444.699 358.251ZM444.509 337.795L442.741 339.563L442.785 339.607L442.832 339.649L444.509 337.795ZM414.962 334.007V331.507H412.462V334.007H414.962ZM447.657 435.288L421.141 386.044L416.739 388.414L443.255 437.659L447.657 435.288ZM418.94 384.729H414.962V389.729H418.94V384.729ZM412.462 387.229V436.473H417.462V387.229H412.462ZM414.962 433.973H377.84V438.973H414.962V433.973ZM380.34 436.473V302.945H375.34V436.473H380.34ZM377.84 305.445H436.365V300.445H377.84V305.445ZM436.365 305.445C446.812 305.445 455.492 307.29 462.506 310.856L464.772 306.399C456.886 302.389 447.383 300.445 436.365 300.445V305.445ZM462.536 310.871C469.585 314.336 474.813 319.123 478.33 325.218L482.661 322.72C478.602 315.684 472.592 310.243 464.741 306.384L462.536 310.871ZM478.341 325.237C481.884 331.261 483.677 338.077 483.677 345.75H488.677C488.677 337.261 486.683 329.556 482.65 322.701L478.341 325.237ZM483.677 345.75C483.677 354.346 481.301 361.842 476.579 368.334L480.623 371.275C486.003 363.877 488.677 355.337 488.677 345.75H483.677ZM476.575 368.34C472.029 374.634 465.272 379.218 456.096 381.995L457.544 386.781C467.561 383.75 475.325 378.611 480.628 371.268L476.575 368.34ZM454.656 385.639L484.771 437.725L489.099 435.222L458.984 383.137L454.656 385.639ZM486.935 433.973H445.456V438.973H486.935V433.973ZM414.962 364.349H433.334V359.349H414.962V364.349ZM433.334 364.349C438.739 364.349 443.258 363.068 446.42 360.063L442.977 356.438C441.089 358.232 438.031 359.349 433.334 359.349V364.349ZM446.42 360.063C449.582 357.06 450.987 352.845 450.987 347.834H445.987C445.987 351.913 444.866 354.643 442.977 356.438L446.42 360.063ZM450.987 347.834C450.987 342.988 449.466 338.909 446.186 335.941L442.832 339.649C444.855 341.48 445.987 344.093 445.987 347.834H450.987ZM446.277 336.028C443.128 332.879 438.666 331.507 433.334 331.507V336.507C437.852 336.507 440.839 337.661 442.741 339.563L446.277 336.028ZM433.334 331.507H414.962V336.507H433.334V331.507ZM412.462 334.007V361.849H417.462V334.007H412.462ZM532.606 429.087L531.374 431.262L531.384 431.268L531.394 431.273L532.606 429.087ZM507.605 404.654L505.441 405.906L505.45 405.921L505.459 405.936L507.605 404.654ZM507.605 334.007L505.452 332.736L505.447 332.744L507.605 334.007ZM532.606 309.575L533.818 311.761L532.606 309.575ZM601.548 309.575L600.325 311.755L600.336 311.761L601.548 309.575ZM626.359 334.007L624.195 335.259L624.202 335.27L626.359 334.007ZM626.359 404.654L628.517 405.917L628.524 405.906L626.359 404.654ZM601.548 429.087L602.76 431.273L602.77 431.268L602.78 431.262L601.548 429.087ZM589.426 394.048L587.566 392.377L587.557 392.388L587.547 392.399L589.426 394.048ZM589.426 344.235L587.547 345.884L587.565 345.904L587.583 345.924L589.426 344.235ZM544.538 344.235L546.4 345.903L546.409 345.894L546.417 345.884L544.538 344.235ZM544.538 394.237L542.659 395.886L542.668 395.895L542.676 395.905L544.538 394.237ZM567.077 435.299C554.981 435.299 543.911 432.494 533.818 426.9L531.394 431.273C542.261 437.296 554.171 440.299 567.077 440.299V435.299ZM533.838 426.911C523.735 421.191 515.716 413.354 509.751 403.372L505.459 405.936C511.868 416.662 520.516 425.114 531.374 431.262L533.838 426.911ZM509.769 403.402C503.947 393.335 501.014 381.967 501.014 369.236H496.014C496.014 382.769 499.141 395.013 505.441 405.906L509.769 403.402ZM501.014 369.236C501.014 356.505 503.947 345.205 509.762 335.27L505.447 332.744C499.141 343.517 496.014 355.703 496.014 369.236H501.014ZM509.758 335.278C515.722 325.175 523.734 317.35 533.818 311.761L531.394 307.388C520.518 313.416 511.862 321.879 505.452 332.736L509.758 335.278ZM533.818 311.761C543.911 306.167 554.981 303.362 567.077 303.362V298.362C554.171 298.362 542.261 301.365 531.394 307.388L533.818 311.761ZM567.077 303.362C579.303 303.362 590.368 306.17 600.325 311.755L602.771 307.394C592.02 301.363 580.104 298.362 567.077 298.362V303.362ZM600.336 311.761C610.416 317.347 618.359 325.167 624.195 335.259L628.524 332.756C622.238 321.888 613.641 313.418 602.76 307.388L600.336 311.761ZM624.202 335.27C630.018 345.205 632.951 356.505 632.951 369.236H637.951C637.951 355.703 634.823 343.517 628.517 332.744L624.202 335.27ZM632.951 369.236C632.951 381.967 630.018 393.335 624.195 403.402L628.524 405.906C634.823 395.013 637.951 382.769 637.951 369.236H632.951ZM624.202 403.391C618.365 413.363 610.414 421.193 600.316 426.911L602.78 431.262C613.642 425.111 622.233 416.653 628.517 405.917L624.202 403.391ZM600.336 426.9C590.243 432.494 579.172 435.299 567.077 435.299V440.299C579.982 440.299 591.892 437.296 602.76 431.273L600.336 426.9ZM567.077 405.828C577.147 405.828 585.327 402.509 591.305 395.696L587.547 392.399C582.666 397.961 575.947 400.828 567.077 400.828V405.828ZM591.286 395.718C597.348 388.967 600.26 380.049 600.26 369.236H595.26C595.26 379.131 592.616 386.754 587.566 392.377L591.286 395.718ZM600.26 369.236C600.26 358.191 597.359 349.189 591.269 342.546L587.583 345.924C592.605 351.403 595.26 359.068 595.26 369.236H600.26ZM591.305 342.586C585.327 335.774 577.147 332.454 567.077 332.454V337.454C575.947 337.454 582.666 340.322 587.547 345.884L591.305 342.586ZM567.077 332.454C556.893 332.454 548.644 335.766 542.659 342.586L546.417 345.884C551.292 340.329 558.069 337.454 567.077 337.454V332.454ZM542.676 342.567C536.724 349.211 533.894 358.205 533.894 369.236H538.894C538.894 359.054 541.493 351.38 546.4 345.903L542.676 342.567ZM533.894 369.236C533.894 380.152 536.73 389.129 542.659 395.886L546.417 392.588C541.488 386.971 538.894 379.28 538.894 369.236H533.894ZM542.676 395.905C548.666 402.591 556.909 405.828 567.077 405.828V400.828C558.052 400.828 551.27 398.004 546.4 392.569L542.676 395.905Z" fill="#2E5939"/>
<path d="M245.843 438.331V465.393H213.229V560.633H179.227V465.393H146.96V438.331H245.843ZM292.424 465.567V485.517H331.457V511.365H292.424V533.397H336.661V560.633H258.423V438.331H336.661V465.567H292.424ZM349.299 499.222C349.299 487.194 351.786 476.496 356.759 467.128C361.848 457.645 369.018 450.301 378.27 445.097C387.522 439.777 398.162 437.117 410.19 437.117C425.456 437.117 438.294 441.222 448.702 449.433C459.111 457.529 465.819 468.574 468.826 482.568H432.222C430.024 477.942 426.96 474.414 423.027 471.986C419.211 469.557 414.758 468.343 409.67 468.343C401.805 468.343 395.502 471.176 390.761 476.843C386.134 482.394 383.821 489.854 383.821 499.222C383.821 508.705 386.134 516.28 390.761 521.947C395.502 527.499 401.805 530.274 409.67 530.274C414.758 530.274 419.211 529.06 423.027 526.631C426.96 524.203 430.024 520.675 432.222 516.049H468.826C465.819 530.043 459.111 541.146 448.702 549.357C438.294 557.453 425.456 561.5 410.19 561.5C398.162 561.5 387.522 558.898 378.27 553.694C369.018 548.374 361.848 541.03 356.759 531.662C351.786 522.179 349.299 511.365 349.299 499.222ZM594.391 438.331V560.633H560.39V511.539H518.928V560.633H484.927V438.331H518.928V484.303H560.39V438.331H594.391Z" fill="#ECFFD4"/>
<path d="M245.843 438.331H248.343V435.831H245.843V438.331ZM245.843 465.393V467.893H248.343V465.393H245.843ZM213.229 465.393V462.893H210.729V465.393H213.229ZM213.229 560.633V563.133H215.729V560.633H213.229ZM179.227 560.633H176.727V563.133H179.227V560.633ZM179.227 465.393H181.727V462.893H179.227V465.393ZM146.96 465.393H144.46V467.893H146.96V465.393ZM146.96 438.331V435.831H144.46V438.331H146.96ZM243.343 438.331V465.393H248.343V438.331H243.343ZM245.843 462.893H213.229V467.893H245.843V462.893ZM210.729 465.393V560.633H215.729V465.393H210.729ZM213.229 558.133H179.227V563.133H213.229V558.133ZM181.727 560.633V465.393H176.727V560.633H181.727ZM179.227 462.893H146.96V467.893H179.227V462.893ZM149.46 465.393V438.331H144.46V465.393H149.46ZM146.96 440.831H245.843V435.831H146.96V440.831ZM292.424 465.567V463.067H289.924V465.567H292.424ZM292.424 485.517H289.924V488.017H292.424V485.517ZM331.457 485.517H333.957V483.017H331.457V485.517ZM331.457 511.365V513.865H333.957V511.365H331.457ZM292.424 511.365V508.865H289.924V511.365H292.424ZM292.424 533.397H289.924V535.897H292.424V533.397ZM336.661 533.397H339.161V530.897H336.661V533.397ZM336.661 560.633V563.133H339.161V560.633H336.661ZM258.423 560.633H255.923V563.133H258.423V560.633ZM258.423 438.331V435.831H255.923V438.331H258.423ZM336.661 438.331H339.161V435.831H336.661V438.331ZM336.661 465.567V468.067H339.161V465.567H336.661ZM289.924 465.567V485.517H294.924V465.567H289.924ZM292.424 488.017H331.457V483.017H292.424V488.017ZM328.957 485.517V511.365H333.957V485.517H328.957ZM331.457 508.865H292.424V513.865H331.457V508.865ZM289.924 511.365V533.397H294.924V511.365H289.924ZM292.424 535.897H336.661V530.897H292.424V535.897ZM334.161 533.397V560.633H339.161V533.397H334.161ZM336.661 558.133H258.423V563.133H336.661V558.133ZM260.923 560.633V438.331H255.923V560.633H260.923ZM258.423 440.831H336.661V435.831H258.423V440.831ZM334.161 438.331V465.567H339.161V438.331H334.161ZM336.661 463.067H292.424V468.067H336.661V463.067ZM356.759 467.128L354.556 465.946L354.551 465.956L356.759 467.128ZM378.27 445.097L379.496 447.275L379.506 447.27L379.516 447.264L378.27 445.097ZM448.702 449.433L447.154 451.396L447.161 451.402L447.167 451.407L448.702 449.433ZM468.826 482.568V485.068H471.92L471.27 482.043L468.826 482.568ZM432.222 482.568L429.964 483.64L430.642 485.068H432.222V482.568ZM423.027 471.986L421.685 474.095L421.699 474.104L421.714 474.113L423.027 471.986ZM390.761 476.843L388.843 475.239L388.84 475.243L390.761 476.843ZM390.761 521.947L388.824 523.528L388.842 523.55L388.86 523.571L390.761 521.947ZM423.027 526.631L421.714 524.504L421.699 524.513L421.685 524.522L423.027 526.631ZM432.222 516.049V513.549H430.642L429.964 514.976L432.222 516.049ZM468.826 516.049L471.27 516.574L471.92 513.549H468.826V516.049ZM448.702 549.357L450.237 551.33L450.244 551.325L450.251 551.32L448.702 549.357ZM378.27 553.694L377.024 555.861L377.034 555.867L377.044 555.873L378.27 553.694ZM356.759 531.662L354.545 532.823L354.553 532.839L354.562 532.855L356.759 531.662ZM351.799 499.222C351.799 487.547 354.21 477.261 358.967 468.3L354.551 465.956C349.362 475.731 346.799 486.841 346.799 499.222H351.799ZM358.962 468.31C363.829 459.239 370.663 452.244 379.496 447.275L377.044 442.918C367.372 448.358 359.866 456.05 354.556 465.946L358.962 468.31ZM379.516 447.264C388.343 442.188 398.543 439.617 410.19 439.617V434.617C397.782 434.617 386.702 437.365 377.024 442.929L379.516 447.264ZM410.19 439.617C424.984 439.617 437.252 443.584 447.154 451.396L450.251 447.471C439.336 438.86 425.929 434.617 410.19 434.617V439.617ZM447.167 451.407C457.071 459.11 463.487 469.621 466.382 483.093L471.27 482.043C468.151 467.527 461.151 455.948 450.237 447.46L447.167 451.407ZM468.826 480.068H432.222V485.068H468.826V480.068ZM434.48 481.495C432.099 476.483 428.727 472.567 424.341 469.859L421.714 474.113C425.192 476.261 427.95 479.401 429.964 483.64L434.48 481.495ZM424.37 469.876C420.103 467.162 415.173 465.843 409.67 465.843V470.843C414.344 470.843 418.319 471.952 421.685 474.095L424.37 469.876ZM409.67 465.843C401.12 465.843 394.094 468.964 388.843 475.239L392.678 478.447C396.911 473.388 402.491 470.843 409.67 470.843V465.843ZM388.84 475.243C383.74 481.362 381.321 489.445 381.321 499.222H386.321C386.321 490.263 388.529 483.427 392.681 478.443L388.84 475.243ZM381.321 499.222C381.321 509.108 383.737 517.297 388.824 523.528L392.697 520.366C388.532 515.264 386.321 508.302 386.321 499.222H381.321ZM388.86 523.571C394.116 529.725 401.138 532.774 409.67 532.774V527.774C402.473 527.774 396.888 525.272 392.661 520.324L388.86 523.571ZM409.67 532.774C415.173 532.774 420.103 531.455 424.37 528.74L421.685 524.522C418.319 526.665 414.344 527.774 409.67 527.774V532.774ZM424.341 528.758C428.727 526.049 432.099 522.134 434.48 517.122L429.964 514.976C427.95 519.216 425.193 522.356 421.714 524.504L424.341 528.758ZM432.222 518.549H468.826V513.549H432.222V518.549ZM466.382 515.524C463.486 528.998 457.068 539.573 447.154 547.394L450.251 551.32C461.154 542.718 468.151 531.088 471.27 516.574L466.382 515.524ZM447.167 547.383C437.265 555.086 424.992 559 410.19 559V564C425.921 564 439.322 559.819 450.237 551.33L447.167 547.383ZM410.19 559C398.534 559 388.326 556.482 379.496 551.515L377.044 555.873C386.718 561.314 397.791 564 410.19 564V559ZM379.516 551.527C370.665 546.437 363.823 539.43 358.956 530.469L354.562 532.855C359.872 542.63 367.371 550.311 377.024 555.861L379.516 551.527ZM358.973 530.501C354.212 521.421 351.799 511.015 351.799 499.222H346.799C346.799 511.715 349.36 522.936 354.545 532.823L358.973 530.501ZM594.391 438.331H596.891V435.831H594.391V438.331ZM594.391 560.633V563.133H596.891V560.633H594.391ZM560.39 560.633H557.89V563.133H560.39V560.633ZM560.39 511.539H562.89V509.039H560.39V511.539ZM518.928 511.539V509.039H516.428V511.539H518.928ZM518.928 560.633V563.133H521.428V560.633H518.928ZM484.927 560.633H482.427V563.133H484.927V560.633ZM484.927 438.331V435.831H482.427V438.331H484.927ZM518.928 438.331H521.428V435.831H518.928V438.331ZM518.928 484.303H516.428V486.803H518.928V484.303ZM560.39 484.303V486.803H562.89V484.303H560.39ZM560.39 438.331V435.831H557.89V438.331H560.39ZM591.891 438.331V560.633H596.891V438.331H591.891ZM594.391 558.133H560.39V563.133H594.391V558.133ZM562.89 560.633V511.539H557.89V560.633H562.89ZM560.39 509.039H518.928V514.039H560.39V509.039ZM516.428 511.539V560.633H521.428V511.539H516.428ZM518.928 558.133H484.927V563.133H518.928V558.133ZM487.427 560.633V438.331H482.427V560.633H487.427ZM484.927 440.831H518.928V435.831H484.927V440.831ZM516.428 438.331V484.303H521.428V438.331H516.428ZM518.928 486.803H560.39V481.803H518.928V486.803ZM562.89 484.303V438.331H557.89V484.303H562.89ZM560.39 440.831H594.391V435.831H560.39V440.831Z" fill="#2E5939"/>
</g>
</svg>
