<svg width="66" height="53" viewBox="0 0 66 53" fill="none" xmlns="http://www.w3.org/2000/svg">
<circle cx="32.7736" cy="45.2289" r="7.62639" fill="black"/>
<path d="M62.3764 19.2994C61.3492 19.2994 60.3842 18.8325 59.7617 18.0543C59.357 17.5563 50.2053 6.81706 32.8981 6.81706C15.5909 6.81706 6.40804 17.5874 6.03451 18.0543C4.85164 19.5173 2.70381 19.7041 1.24079 18.5212C-0.222233 17.3384 -0.409002 15.1905 0.773867 13.7275C1.24079 13.1672 12.229 0 32.8981 0C53.536 0 64.5554 13.1672 65.0223 13.7275C66.2052 15.1905 65.9873 17.3384 64.5554 18.5212C63.9017 19.0193 63.1546 19.2994 62.3764 19.2994Z" fill="black"/>
<path d="M54.4388 28.3576C53.4115 28.3576 52.4777 27.9218 51.824 27.1436C46.9058 22.0074 40.0265 19.1436 32.8981 19.2993C25.7698 19.1436 18.8905 22.0074 13.9722 27.1436C12.7271 28.5443 10.5793 28.6688 9.17849 27.4237C7.83998 26.2408 7.6532 24.2175 8.74269 22.7856C14.9683 16.0619 23.7465 12.3266 32.8981 12.4822C42.0498 12.3266 50.8279 16.0931 57.0535 22.7856C58.2364 24.2486 58.0185 26.3965 56.5866 27.5793C55.9641 28.1085 55.217 28.3576 54.4388 28.3576Z" fill="black"/>
<path d="M45.3495 37.447C44.2911 37.447 43.295 36.9489 42.6724 36.1396C37.7853 30.7233 29.4741 30.3186 24.0578 35.1746C23.7154 35.4859 23.4041 35.7972 23.0928 36.1396C21.9411 37.6026 19.7933 37.8828 18.3302 36.6999C16.8672 35.5482 16.6182 33.4626 17.7077 31.9996C24.836 23.6261 37.4429 22.5989 45.8164 29.7583C46.6257 30.4432 47.3728 31.1902 48.0576 31.9996C49.2093 33.4937 48.8981 35.6416 47.4039 36.7622C46.8436 37.198 46.0965 37.447 45.3495 37.447Z" fill="black"/>
</svg>
